<svg xmlns="http://www.w3.org/2000/svg" width="32" height="32"><g transform="translate(0 -1020.362)"><circle cx="16" cy="1036.362" r="16" fill="#239fdb" fill-rule="evenodd"/><path style="line-height:normal;text-indent:0;text-align:start;text-decoration-line:none;text-decoration-style:solid;text-decoration-color:#000;text-transform:none;block-progression:tb;isolation:auto;mix-blend-mode:normal" fill="#fff" d="M8.5 1C4.364 1 1 4.364 1 8.5S4.364 16 8.5 16 16 12.636 16 8.5 12.636 1 8.5 1Zm0 1C12.096 2 15 4.904 15 8.5S12.096 15 8.5 15A6.492 6.492 0 0 1 2 8.5C2 4.904 4.904 2 8.5 2Zm-.2 1.506a2.505 2.505 0 0 0-2.252 2.986.5.5 0 0 0 .981-.197 1.498 1.498 0 0 1 .698-1.582 1.498 1.498 0 0 1 2.185 1.789 1.496 1.496 0 0 1-1.412.996.5.5 0 0 0-.492.615v2.98a.5.5 0 1 0 1 0V8.442a2.5 2.5 0 0 0 1.846-1.603A2.5 2.5 0 0 0 8.3 3.506Zm.208 9.05a.5.5 0 0 0-.5.5.5.5 0 0 0 .5.5.5.5 0 0 0 .5-.5.5.5 0 0 0-.5-.5z" color="#000" font-family="sans-serif" font-weight="400" overflow="visible" transform="translate(7.5 1027.862)"/></g></svg>