<svg xmlns="http://www.w3.org/2000/svg" data-name="Layer 1" viewBox="0 0 512 512"><g data-name="&lt;Group&gt;"><path d="M359,344.9a170.577,170.577,0,0,0,43.4-113.8c0-94.5-76.9-171.3-171.3-171.3-94.5,0-171.3,76.9-171.3,171.3s76.9,171.3,171.3,171.3A170.577,170.577,0,0,0,344.9,359l90.3,90.3a9.82,9.82,0,0,0,7.1,2.9,10.243,10.243,0,0,0,7.1-2.9,9.959,9.959,0,0,0,0-14.1ZM79.7,231.1c0-83.4,67.9-151.3,151.3-151.3s151.3,67.9,151.3,151.3S314.4,382.4,231,382.4,79.7,314.5,79.7,231.1Z" data-name="&lt;Compound Path&gt;"/></g></svg>