<svg xmlns="http://www.w3.org/2000/svg" width="32" height="32"><path style="line-height:normal;text-indent:0;text-align:start;text-decoration-line:none;text-decoration-style:solid;text-decoration-color:#000;text-transform:none;block-progression:tb;white-space:normal;isolation:auto;mix-blend-mode:normal;solid-color:#000;solid-opacity:1" d="M1.5 4a.5.5 0 0 0-.5.5v5.912a.5.5 0 0 0 0 .01.5.5 0 0 0 .5.584h7.998a.5.5 0 0 0 .5-.486l.023-.754a.5.5 0 0 0 0-.014l.006-1.133 3.729 3.367-3.746 3.383.004-1.117a.5.5 0 0 0 0-.014l-.016-.75a.5.5 0 0 0-.5-.49H1.5a.5.5 0 0 0-.5.584V19H.5a.5.5 0 0 0-.5.5v2a.5.5 0 0 0 .5.5h2.666a.5.5 0 0 0 .56-.328 4.006 4.006 0 0 1 1.223-1.738.5.5 0 0 0 .145-.122 3.966 3.966 0 0 1 4.857.038.5.5 0 0 0 .07.058 4.004 4.004 0 0 1 1.258 1.78.5.5 0 0 0 .625.31.5.5 0 0 0 .02.002h7.742a.5.5 0 0 0 .56-.328 4 4 0 0 1 7.553.016.5.5 0 0 0 .621.312h3.1a.5.5 0 0 0 .5-.5v-2a.5.5 0 0 0-.5-.5H31v-7.5a.5.5 0 0 0-.22-.414l-5.176-5.914A.5.5 0 0 0 25.227 5H18v-.5a.5.5 0 0 0-.5-.5h-16zM2 5h15V19h-6.51a4.971 4.971 0 0 0-5.978 0H2v-2h1.6a.5.5 0 1 0 0-1H2v-2.002h7.008l.006.254-.01 2.244a.5.5 0 0 0 .834.375l5-4.514a.5.5 0 0 0 0-.742L9.865 7.127A.5.5 0 0 0 9.498 7v.002a.5.5 0 0 0-.467.496l-.01 2.244-.007.264H2V5zm16 1h7l4.377 5H18V6zm0 6h12v2h-1.5a.5.5 0 0 0-.5.5v2a.5.5 0 0 0 .5.5H30v2h-3.01a4.971 4.971 0 0 0-5.978 0 .5.5 0 0 0-.028 0H18v-7zm2.322 1.5a.5.5 0 0 0 .051 1h2.246a.5.5 0 1 0 0-1h-2.246a.5.5 0 0 0-.05 0zM29 15h1v1h-1v-1zM1 20h2.502c-.23.306-.413.646-.568 1H1v-1zm6.5 0A3.508 3.508 0 0 0 4 23.5C4 25.427 5.573 27 7.5 27s3.5-1.573 3.5-3.5S9.427 20 7.5 20zm4 0h5.924a.5.5 0 0 0 .146 0h2.432c-.23.306-.413.646-.568 1h-7.366a5.004 5.004 0 0 0-.568-1zM24 20a3.508 3.508 0 0 0-3.5 3.5c0 1.927 1.573 3.5 3.5 3.5s3.5-1.573 3.5-3.5S25.927 20 24 20zm4 0h3v1h-2.432A5.004 5.004 0 0 0 28 20zM7.5 21c1.387 0 2.5 1.113 2.5 2.5S8.887 26 7.5 26A2.492 2.492 0 0 1 5 23.5C5 22.113 6.113 21 7.5 21zM24 21c1.387 0 2.5 1.113 2.5 2.5S25.387 26 24 26a2.492 2.492 0 0 1-2.5-2.5c0-1.387 1.113-2.5 2.5-2.5zM7.5 22c-.822 0-1.5.677-1.5 1.5S6.678 25 7.5 25 9 24.323 9 23.5 8.322 22 7.5 22zM24 22c-.823 0-1.5.677-1.5 1.5S23.177 25 24 25s1.5-.677 1.5-1.5S24.823 22 24 22zM7.5 23c.282 0 .5.218.5.5 0 .282-.218.5-.5.5a.493.493 0 0 1-.5-.5c0-.282.218-.5.5-.5zM24 23c.282 0 .5.218.5.5 0 .282-.218.5-.5.5a.493.493 0 0 1-.5-.5c0-.282.218-.5.5-.5z" color="#000" enable-background="accumulate" font-family="sans-serif" font-weight="400" overflow="visible"/></svg>