<svg xmlns="http://www.w3.org/2000/svg" enable-background="new 0 0 128 128" viewBox="0 0 128 128"><path fill-rule="evenodd" d="M65.545 128c-15.525-.472-29.08-.831-42.631-1.341-2.705-.102-5.515-.406-8.054-1.27-5.09-1.73-8.394-5.396-9.271-10.796C2.666 96.602 2.779 78.576 5.457 60.575c1.03-6.925 6.494-11.838 13.807-12.249 26.494-1.488 52.999-2.19 79.513-.379 3.203.219 6.424.178 9.627.394 7.616.511 13.096 5.196 14.208 12.669 2.623 17.642 2.637 35.326-.058 52.965-1.072 7.018-6.197 11.889-13.326 12.269C94.029 127.052 78.81 127.487 65.545 128zM74.067 109.661c3.097 2.177 6.025 4.834 9.828 2.618 3.653-2.128 3.315-6.021 3.368-9.563.079-5.343.047-10.688.015-16.032-.015-2.49.101-5.017-.27-7.463-.893-5.89-5.412-7.823-10.447-4.635-.82.519-1.636 1.045-2.937 1.876 0-4.808-.136-8.959.049-13.095.119-2.647-.759-3.48-3.433-3.496-2.778-.016-3.696.783-3.673 3.631.119 14.963.006 29.927.119 44.89.01 1.347.867 3.681 1.668 3.837C70.51 112.65 73.472 113.6 74.067 109.661zM52.895 109.289c.572 3.99 3.56 3.711 5.897 2.937.987-.327 1.67-2.978 1.693-4.584.144-10.346.015-20.696.1-31.044.022-2.634-1.238-3.18-3.52-3.175-2.209.004-3.684.364-3.63 3.061.099 4.875.032 9.753.017 14.63-.011 3.687.061 7.378-.112 11.058-.123 2.61-1.835 4.335-4.317 4.229-.687-.029-1.772-2.702-1.804-4.18-.184-8.561-.194-17.128-.068-25.69.039-2.672-1.137-3.178-3.436-3.143-2.186.033-3.652.314-3.59 3.057.125 5.469.015 10.942.022 16.414.006 4.638-.07 9.281.089 13.915.197 5.781 3.957 7.894 8.901 5.096C50.361 111.176 51.47 110.276 52.895 109.289zM93.056 92.761c-.007 0-.014 0-.02 0 0 2.258-.106 4.522.029 6.772.134 2.235.183 4.557.844 6.661 1.581 5.037 6.426 7.656 11.889 6.778 4.691-.754 7.991-4.748 8.44-9.693.302-3.317-.856-4.286-4.148-4.254-3.474.034-2.602 2.484-3.341 4.292-.537 1.314-2.157 3.316-2.916 3.161-1.363-.279-3.092-1.753-3.49-3.081-.624-2.085-.232-4.466-.343-6.717-.089-1.82.71-2.576 2.518-2.549 3.089.045 6.193.149 9.259-.131.872-.08 2.288-1.372 2.325-2.16.153-3.304.244-6.692-.321-9.93-1.112-6.368-5.171-9.286-11.329-8.709-5.547.519-9.186 4.6-9.379 10.649C92.978 86.816 93.056 89.79 93.056 92.761zM30.551 67.423c1.973 0 3.5-.127 4.999.027 2.767.285 3.476-1.072 3.461-3.567-.015-2.449-.285-4.076-3.429-3.973-5.934.195-11.882.147-17.818.002-2.644-.064-3.432.873-3.501 3.501-.082 3.117.923 4.419 4.063 4.05 1.258-.148 2.548-.024 4.397-.024 0 2.737.001 5.079 0 7.42-.003 11.287.066 22.574-.056 33.86-.033 3.007 1.147 3.833 4.002 3.856 2.897.023 3.961-.838 3.929-3.844-.131-12.236-.049-24.474-.047-36.711C30.551 70.63 30.551 69.24 30.551 67.423zM89.214 41.396c-2.762.793-5.078 1.722-7.478 2.083-3.204.481-5.142-1.439-5.201-4.453-.181-9.126-.066-18.258-.066-27.18.465-.35.636-.586.834-.612 6.424-.826 6.438-.813 6.44 5.454.002 5.823-.111 11.65.084 17.466.046 1.347 1.18 3.805 1.748 3.786 2.255-.075 3.955-1.434 3.966-4.057.018-4.278.019-8.556.024-12.834.003-1.902-.013-3.803.006-5.704.044-4.474.094-4.379 4.655-4.396 2.433-.009 3.033 1.007 3.014 3.201-.07 8.199.06 16.401-.099 24.598-.029 1.48-.856 4.043-1.675 4.198C93.284 43.359 90.372 44.411 89.214 41.396zM22.683.808c.547-.379.639-.497.739-.505 7.316-.62 7.323-.621 9.617 6.281.971 2.923 1.907 5.859 3.566 8.912 1.134-3.479 2.581-6.893 3.315-10.455.835-4.052 2.897-5.611 6.886-4.858.79.149 1.61.139 2.84.236-4.704 13.916-12.343 26.952-8.742 42.807-2.736 0-4.477-.045-6.216.013-1.789.059-2.622-.662-2.534-2.524.089-1.898-.137-3.818.039-5.704.708-7.557-1.074-14.572-4.2-21.386C26.073 9.441 24.456 5.117 22.683.808zM71.114 27.213c-.242 3.042-.222 6.159-.786 9.166-1.01 5.386-5.122 7.68-12.074 7.113-4.935-.403-8.267-3.797-8.41-8.87-.14-4.984-.151-9.977-.03-14.961.123-5.088 3.352-8.321 8.474-8.793 6.953-.641 11.037 1.633 12.056 7.09C70.905 20.967 70.873 24.085 71.114 27.213zM63.489 27.078c0-2.367.337-4.801-.123-7.075-.284-1.404-1.551-3.276-2.786-3.677-2.253-.731-3.598 1.194-3.673 3.223-.189 5.079-.264 10.187.119 15.244.091 1.196 2.164 2.243 3.326 3.358 1.049-1.206 2.723-2.282 3.008-3.648C63.858 32.123 63.499 29.563 63.489 27.078z" clip-rule="evenodd"/><path fill-rule="evenodd" d="M73.664 92.966c-.003-3.212.053-6.425-.022-9.636-.054-2.285.835-3.678 3.199-3.829 2.311-.148 3.303 1.359 3.331 3.321.098 6.777.188 13.564-.12 20.329-.056 1.24-1.892 3.268-3.077 3.4-2.264.253-3.465-1.425-3.345-3.951C73.783 99.395 73.667 96.178 73.664 92.966zM107.24 85.398c.455 2.476-.916 3.146-3.455 3.072-2.419-.07-4.203-.272-3.807-3.413.31-2.459.009-5.238 3.47-5.589C105.93 79.216 107.267 81.31 107.24 85.398z" clip-rule="evenodd"/></svg>